<?xml version="1.0" encoding="UTF-8"?>
<!DOCTYPE svg PUBLIC "-//W3C//DTD SVG 1.1//EN" "http://www.w3.org/Graphics/SVG/1.1/DTD/svg11.dtd">
<!-- Creator: CorelDRAW 2020 (64-Bit) -->
<svg xmlns="http://www.w3.org/2000/svg" xml:space="preserve" width="75px" height="63px" version="1.1" style="shape-rendering:geometricPrecision; text-rendering:geometricPrecision; image-rendering:optimizeQuality; fill-rule:evenodd; clip-rule:evenodd"
viewBox="0 0 2.46 2.07"
 xmlns:xlink="http://www.w3.org/1999/xlink"
 xmlns:xodm="http://www.corel.com/coreldraw/odm/2003">
 <defs>
  <style type="text/css">
   <![CDATA[
    .fil0 {fill:#F48712}
   ]]>
  </style>
 </defs>
 <g id="Capa_x0020_1">
  <metadata id="CorelCorpID_0Corel-Layer"/>
  <g id="_2104438383008">
   <path class="fil0" d="M2.18 1.35c0.09,0.08 0.18,0.16 0.28,0.24 0,0.01 0,0.01 0,0.02 -0.05,0.13 -0.05,0.26 0,0.41l-0.03 0.01 -0.15 -0.26c0.01,-0.02 0.02,-0.05 0.01,-0.07 -0.02,-0.03 -0.06,-0.04 -0.08,-0.02 -0.03,0.01 -0.04,0.05 -0.03,0.07 0.02,0.03 0.04,0.04 0.07,0.03l0.15 0.27 -0.03 0.02c-0.1,-0.11 -0.21,-0.19 -0.35,-0.21 -0.01,0 -0.01,0 -0.01,-0.01 -0.03,-0.12 -0.05,-0.24 -0.07,-0.36l0.24 -0.14z"/>
   <path class="fil0" d="M2.16 1.32c0.03,-0.01 0.03,-0.06 0.01,-0.09l-0.34 0.2c0.02,0.03 0.06,0.05 0.09,0.03l0.24 -0.14z"/>
   <path class="fil0" d="M1.14 0.02c-0.14,-0.03 -0.29,-0.03 -0.44,0.01 -0.41,0.11 -0.68,0.47 -0.7,0.88 0.08,-0.23 0.27,-0.42 0.52,-0.5 0.01,0 0.02,0 0.02,0 0.21,-0.06 0.43,-0.03 0.61,0.08 0.09,0.04 0.21,0.17 0.27,0.26 0.11,0.2 0.22,0.4 0.34,0.6 0.01,0.02 0.03,0.04 0.06,0.05 0.11,-0.07 0.22,-0.14 0.34,-0.2 0,-0.03 0,-0.05 -0.01,-0.08 -0.13,-0.21 -0.25,-0.42 -0.37,-0.63 -0.08,-0.13 -0.18,-0.23 -0.31,-0.33 -0.1,-0.07 -0.21,-0.12 -0.33,-0.14z"/>
   <path class="fil0" d="M1.1 1.88c0.03,0 0.06,-0.01 0.09,-0.02 0.25,-0.06 0.45,-0.23 0.58,-0.44 -0.01,0 -0.01,-0.01 -0.01,-0.01l-0.01 0 0 -0.01c0,0 0,-0.01 0,-0.01 -0.09,0.08 -0.19,0.14 -0.31,0.18 0,0 -0.01,0 -0.01,0 0,0 0,0 0,0 -0.33,0.1 -0.69,-0.03 -0.88,-0.31 -0.04,-0.05 -0.07,-0.1 -0.08,-0.16 -0.01,-0.01 -0.01,-0.02 -0.01,-0.02 -0.07,-0.27 0.09,-0.55 0.36,-0.62 0.05,-0.01 0.1,-0.02 0.15,-0.02 -0.14,-0.04 -0.28,-0.04 -0.42,0 -0.01,0 -0.01,0 -0.02,0 -0.23,0.07 -0.42,0.25 -0.5,0.48l-0.03 0.08c0,0.07 0.01,0.13 0.03,0.19 0.13,0.48 0.6,0.77 1.07,0.69z"/>
   <path class="fil0" d="M1.43 1.08c-0.04,0.17 -0.17,0.31 -0.35,0.35 -0.12,0.04 -0.25,0.02 -0.35,-0.03 0.19,0.16 0.45,0.21 0.69,0.14 0,0 0.01,0 0.01,0 0.11,-0.04 0.21,-0.09 0.3,-0.17l-0.25 -0.43 -0.05 0.14z"/>
   <path class="fil0" d="M1.66 0.28c0.06,0.06 0.11,0.12 0.15,0.2l0.2 0.33c0.04,-0.23 0.06,-0.3 -0.07,-0.52 -0.13,-0.2 -0.3,-0.2 -0.28,-0.01z"/>
  </g>
 </g>
</svg>
