<?xml version="1.0" encoding="UTF-8"?>
<!DOCTYPE svg PUBLIC "-//W3C//DTD SVG 1.1//EN" "http://www.w3.org/Graphics/SVG/1.1/DTD/svg11.dtd">
<!-- Creator: CorelDRAW 2020 (64-Bit) -->
<svg xmlns="http://www.w3.org/2000/svg" xml:space="preserve" width="240px" height="73px" version="1.1" style="shape-rendering:geometricPrecision; text-rendering:geometricPrecision; image-rendering:optimizeQuality; fill-rule:evenodd; clip-rule:evenodd"
viewBox="0 0 23.09 7.03"
 xmlns:xlink="http://www.w3.org/1999/xlink"
 xmlns:xodm="http://www.corel.com/coreldraw/odm/2003">
 <defs>
  <style type="text/css">
   <![CDATA[
    .fil0 {fill:none}
    .fil1 {fill:#F76D27}
    .fil7 {fill:white}
    .fil6 {fill:white;fill-rule:nonzero}
    .fil5 {fill:url(#id0)}
    .fil4 {fill:url(#id1)}
    .fil3 {fill:url(#id2)}
    .fil2 {fill:url(#id3)}
   ]]>
  </style>
  <linearGradient id="id0" gradientUnits="userSpaceOnUse" x1="7.01" y1="0.34" x2="6.18" y2="1.29">
   <stop offset="0" style="stop-opacity:1; stop-color:#5FC2A6"/>
   <stop offset="0.501961" style="stop-opacity:1; stop-color:#4EC1BB"/>
   <stop offset="1" style="stop-opacity:1; stop-color:#2792BB"/>
  </linearGradient>
  <linearGradient id="id1" gradientUnits="userSpaceOnUse" xlink:href="#id0" x1="3.52" y1="5.08" x2="5.5" y2="3.6">
  </linearGradient>
  <linearGradient id="id2" gradientUnits="userSpaceOnUse" xlink:href="#id0" x1="1.53" y1="5.93" x2="1.61" y2="0.94">
  </linearGradient>
  <linearGradient id="id3" gradientUnits="userSpaceOnUse" x1="1.98" y1="3.32" x2="9.28" y2="1.74">
   <stop offset="0" style="stop-opacity:1; stop-color:#F4C232"/>
   <stop offset="0.490196" style="stop-opacity:1; stop-color:#F47B35"/>
   <stop offset="1" style="stop-opacity:1; stop-color:#FF4400"/>
  </linearGradient>
 </defs>
 <g id="Capa_x0020_1">
  <metadata id="CorelCorpID_0Corel-Layer"/>
  <rect class="fil0" width="23.09" height="7.03"/>
  <g id="_2104429163872">
   <path class="fil1" d="M7.47 4.59c0.31,0.27 0.63,0.55 0.94,0.83 0.01,0.01 0.02,0.03 0.01,0.04 -0.18,0.47 -0.15,0.92 0.01,1.4l-0.1 0.06 -0.53 -0.92c0.06,-0.06 0.07,-0.15 0.03,-0.23 -0.06,-0.09 -0.18,-0.13 -0.27,-0.07 -0.1,0.05 -0.13,0.17 -0.08,0.27 0.05,0.07 0.14,0.11 0.22,0.09l0.53 0.92 -0.1 0.05c-0.34,-0.38 -0.71,-0.63 -1.21,-0.7 -0.02,0 -0.03,-0.02 -0.03,-0.03 -0.09,-0.41 -0.17,-0.82 -0.25,-1.23l0.83 -0.48z"/>
   <path class="fil1" d="M7.42 4.49c0.08,-0.05 0.09,-0.22 0.03,-0.32l-1.17 0.68c0.07,0.1 0.22,0.17 0.3,0.12l0.84 -0.48z"/>
   <path class="fil2" d="M3.93 0.07c-0.48,-0.1 -0.99,-0.09 -1.49,0.04 -1.39,0.37 -2.33,1.61 -2.39,2.97 0.28,-0.78 0.92,-1.42 1.77,-1.68 0.03,-0.01 0.05,-0.01 0.08,-0.02 0.72,-0.19 1.45,-0.08 2.05,0.27 0.33,0.14 0.73,0.58 0.92,0.9 0.38,0.68 0.77,1.35 1.16,2.03 0.04,0.08 0.11,0.13 0.2,0.17 0.39,-0.23 0.78,-0.45 1.16,-0.67 0.02,-0.09 0.01,-0.17 -0.04,-0.27 -0.42,-0.71 -0.83,-1.43 -1.24,-2.15 -0.26,-0.44 -0.62,-0.78 -1.06,-1.12 -0.34,-0.23 -0.72,-0.39 -1.12,-0.47z"/>
   <path class="fil3" d="M3.8 6.4c0.11,-0.01 0.21,-0.04 0.31,-0.06 0.85,-0.23 1.54,-0.79 1.95,-1.49 -0.01,-0.02 -0.03,-0.04 -0.04,-0.06l0 -0.01 0 -0.01c-0.01,-0.01 -0.02,-0.03 -0.02,-0.04 -0.29,0.28 -0.65,0.49 -1.06,0.61 0,0 -0.01,0 -0.01,0 0,0 0,0 0,0 -1.15,0.35 -2.35,-0.11 -3,-1.05 -0.13,-0.16 -0.23,-0.35 -0.29,-0.56 -0.01,-0.02 -0.01,-0.04 -0.02,-0.06 -0.25,-0.92 0.3,-1.86 1.21,-2.1 0.17,-0.05 0.35,-0.07 0.52,-0.06 -0.46,-0.14 -0.95,-0.15 -1.42,-0.02 -0.03,0.01 -0.05,0.01 -0.07,0.02 -0.8,0.24 -1.42,0.83 -1.7,1.61l-0.1 0.3c0.01,0.21 0.04,0.42 0.1,0.64 0.43,1.62 2.03,2.61 3.64,2.34z"/>
   <path class="fil4" d="M4.93 3.66c-0.15,0.58 -0.6,1.05 -1.21,1.22 -0.42,0.11 -0.84,0.06 -1.19,-0.12 0.65,0.53 1.53,0.72 2.37,0.47 0,0 0,0 0,0 0.38,-0.11 0.73,-0.31 1.02,-0.58l-0.84 -1.46 -0.15 0.47z"/>
   <path class="fil5" d="M5.69 0.95c0.2,0.2 0.38,0.42 0.52,0.67l0.67 1.15c0.14,-0.8 0.23,-1.04 -0.24,-1.79 -0.42,-0.68 -0.99,-0.66 -0.95,-0.03z"/>
  </g>
  <g id="_2104429164880">
   <g>
    <path class="fil6" d="M15.74 2.82c0.52,-0.09 0.94,0.18 1.18,0.58 0.08,0.16 0.12,0.34 0.12,0.51 0,0.09 -0.03,0.21 -0.15,0.21l-1.71 0c0.1,0.35 0.4,0.57 0.76,0.57 0.12,0 0.25,-0.03 0.41,-0.11 0.09,-0.04 0.21,0.02 0.21,0.14 0,0.06 -0.03,0.11 -0.08,0.15 -0.13,0.1 -0.38,0.13 -0.5,0.15 -0.57,0.06 -1.17,-0.49 -1.15,-1.07 0.01,-0.6 0.38,-1.04 0.91,-1.13zm-0.59 0.99l1.56 0c-0.01,-0.11 -0.07,-0.29 -0.21,-0.44 -0.14,-0.14 -0.32,-0.24 -0.57,-0.24 -0.26,0 -0.51,0.12 -0.66,0.36 -0.06,0.1 -0.1,0.22 -0.12,0.32z"/>
    <path class="fil6" d="M12.6 2.16l0 0.69 0.38 0c0.09,0 0.16,0.07 0.16,0.16 0,0.08 -0.07,0.16 -0.16,0.16l-0.38 0 0 1.13c0,0.2 0.06,0.4 0.23,0.4l0.21 0c0.08,0 0.16,0.07 0.16,0.16l0 0c0,0.08 -0.08,0.16 -0.16,0.16l-0.21 0c-0.4,0 -0.54,-0.35 -0.55,-0.72l0 -1.13 -0.26 0c-0.08,0 -0.16,-0.08 -0.16,-0.16 0,-0.09 0.08,-0.16 0.16,-0.16l0.26 0c0,-0.23 0,-0.46 0,-0.69 0,-0.08 0.07,-0.16 0.16,-0.16 0.09,0 0.16,0.08 0.16,0.16z"/>
    <path class="fil7" d="M13.75 2.94c0,-0.09 -0.07,-0.16 -0.16,-0.16l0 0c-0.09,0 -0.16,0.07 -0.16,0.16l0 0.3 0 1.62c0,0.08 0.07,0.16 0.16,0.16 0.09,0 0.16,-0.08 0.16,-0.16l0 -0.95c0.06,-0.64 0.53,-0.93 1.03,-0.75l0.06 0.01c0.08,0.03 0.17,-0.01 0.2,-0.09l0 0c0.03,-0.09 -0.01,-0.18 -0.1,-0.21l-0.04 -0.01c-0.37,-0.13 -0.75,-0.11 -1.15,0.24l0 -0.16z"/>
    <path class="fil7" d="M19.07 4.65l1.19 -1.5 -1.16 0c-0.09,0 -0.16,-0.07 -0.16,-0.16l0 0c0,-0.08 0.07,-0.16 0.16,-0.16l1.39 0c0.22,0.01 0.23,0.23 0.13,0.38l-1.18 1.49 1.17 0c0.08,0 0.16,0.07 0.16,0.16l0 0c0,0.08 -0.08,0.16 -0.16,0.16l-1.46 0c-0.16,0 -0.24,-0.18 -0.08,-0.37z"/>
    <path class="fil7" d="M17.19 4.65l1.19 -1.5 -1.16 0c-0.09,0 -0.16,-0.07 -0.16,-0.16l0 0c0,-0.08 0.07,-0.16 0.16,-0.16l1.39 0c0.22,0.01 0.23,0.23 0.13,0.38l-1.19 1.49 1.17 0c0.09,0 0.16,0.07 0.16,0.16l0 0c0,0.08 -0.07,0.16 -0.16,0.16l-1.45 0c-0.16,0 -0.24,-0.18 -0.08,-0.37z"/>
    <path class="fil7" d="M10.74 2.82c0.6,0 1.1,0.49 1.1,1.1 0,0.02 -0.01,0.05 -0.01,0.07l0 0.52 0 0.36 0 0c0,0.01 0,0.02 0,0.02 -0.01,0.08 -0.08,0.14 -0.16,0.14l0 0c-0.08,0 -0.16,-0.07 -0.16,-0.16l0 -0.17c-0.2,0.2 -0.47,0.32 -0.77,0.32 -0.61,0 -1.1,-0.49 -1.1,-1.1 0,-0.61 0.49,-1.1 1.1,-1.1zm0.72 1.13c0,0.39 -0.32,0.72 -0.72,0.72 -0.4,0 -0.72,-0.33 -0.72,-0.72 0,-0.4 0.32,-0.73 0.72,-0.73 0.4,0 0.72,0.33 0.72,0.73z"/>
    <path class="fil7" d="M23.04 3.92c0,-0.61 -0.49,-1.1 -1.1,-1.1 -0.6,0 -1.09,0.49 -1.09,1.1 0,0.61 0.49,1.1 1.09,1.1 0.61,0 1.1,-0.49 1.1,-1.1zm-0.38 0c0,-0.4 -0.32,-0.72 -0.72,-0.72 -0.39,0 -0.72,0.32 -0.72,0.72 0,0.4 0.33,0.72 0.72,0.72 0.4,0 0.72,-0.32 0.72,-0.72z"/>
   </g>
  </g>
 </g>
</svg>
