<?xml version="1.0" encoding="UTF-8"?>
<!DOCTYPE svg PUBLIC "-//W3C//DTD SVG 1.1//EN" "http://www.w3.org/Graphics/SVG/1.1/DTD/svg11.dtd">
<!-- Creator: CorelDRAW 2020 (64-Bit) -->
<svg xmlns="http://www.w3.org/2000/svg" xml:space="preserve" width="68px" height="74px" version="1.1" style="shape-rendering:geometricPrecision; text-rendering:geometricPrecision; image-rendering:optimizeQuality; fill-rule:evenodd; clip-rule:evenodd"
viewBox="0 0 2.4 2.61"
 xmlns:xlink="http://www.w3.org/1999/xlink"
 xmlns:xodm="http://www.corel.com/coreldraw/odm/2003">
 <defs>
  <style type="text/css">
   <![CDATA[
    .fil0 {fill:#FEFEFE}
    .fil2 {fill:white}
    .fil1 {fill:white;fill-rule:nonzero}
   ]]>
  </style>
 </defs>
 <g id="Capa_x0020_1">
  <metadata id="CorelCorpID_0Corel-Layer"/>
  <g id="_2104466672544">
   <path class="fil0" d="M2.13 1.32c0.09,0.08 0.18,0.16 0.27,0.24 0,0 0,0 0,0.01 -0.05,0.13 -0.04,0.26 0,0.4l-0.03 0.02 -0.15 -0.27c0.02,-0.01 0.02,-0.04 0.01,-0.06 -0.02,-0.03 -0.05,-0.04 -0.08,-0.02 -0.02,0.01 -0.03,0.05 -0.02,0.07 0.02,0.02 0.04,0.04 0.06,0.03l0.16 0.26 -0.03 0.02c-0.1,-0.11 -0.21,-0.18 -0.35,-0.2 0,0 -0.01,-0.01 -0.01,-0.01 -0.02,-0.12 -0.05,-0.24 -0.07,-0.35l0.24 -0.14z"/>
   <path class="fil0" d="M2.11 1.29c0.03,-0.02 0.03,-0.06 0.01,-0.09l-0.33 0.19c0.02,0.03 0.06,0.05 0.08,0.04l0.24 -0.14z"/>
   <path class="fil0" d="M1.11 0.02c-0.14,-0.03 -0.28,-0.03 -0.43,0.01 -0.39,0.11 -0.66,0.46 -0.68,0.86 0.08,-0.23 0.26,-0.41 0.51,-0.49 0.01,0 0.01,0 0.02,0 0.21,-0.06 0.42,-0.03 0.59,0.07 0.09,0.04 0.21,0.17 0.26,0.26 0.11,0.2 0.22,0.39 0.33,0.58 0.02,0.03 0.04,0.04 0.06,0.05 0.11,-0.06 0.23,-0.13 0.34,-0.19 0,-0.03 0,-0.05 -0.02,-0.08 -0.11,-0.2 -0.23,-0.41 -0.35,-0.61 -0.08,-0.13 -0.18,-0.23 -0.31,-0.33 -0.09,-0.06 -0.2,-0.11 -0.32,-0.13z"/>
   <path class="fil0" d="M1.08 1.84c0.03,-0.01 0.05,-0.01 0.08,-0.02 0.25,-0.07 0.45,-0.23 0.56,-0.43 0,0 0,-0.01 -0.01,-0.02l0 0 0 0c0,0 0,-0.01 0,-0.01 -0.09,0.08 -0.19,0.14 -0.31,0.17 0,0 0,0 0,0 0,0 0,0 0,0 -0.33,0.1 -0.68,-0.03 -0.86,-0.3 -0.04,-0.05 -0.07,-0.1 -0.09,-0.16 0,-0.01 0,-0.01 0,-0.02 -0.07,-0.26 0.08,-0.53 0.35,-0.6 0.05,-0.01 0.1,-0.02 0.15,-0.02 -0.14,-0.04 -0.28,-0.04 -0.41,0 -0.01,0 -0.02,0 -0.02,0 -0.23,0.07 -0.41,0.24 -0.49,0.47l-0.03 0.08c0,0.06 0.01,0.12 0.03,0.18 0.13,0.47 0.58,0.76 1.05,0.68z"/>
   <path class="fil0" d="M1.4 1.05c-0.04,0.17 -0.17,0.3 -0.35,0.35 -0.12,0.03 -0.24,0.02 -0.34,-0.03 0.19,0.15 0.44,0.2 0.68,0.13 0,0 0,0 0,0 0.11,-0.03 0.21,-0.09 0.29,-0.17l-0.24 -0.42 -0.04 0.14z"/>
   <path class="fil0" d="M1.62 0.27c0.06,0.06 0.11,0.12 0.15,0.19l0.19 0.33c0.04,-0.23 0.06,-0.29 -0.07,-0.51 -0.12,-0.19 -0.28,-0.19 -0.27,-0.01z"/>
  </g>
  <g id="_2104466670096">
   <g>
    <path class="fil1" d="M1.09 2.22c0.1,-0.02 0.17,0.03 0.21,0.1 0.02,0.03 0.03,0.06 0.03,0.09 0,0.02 -0.01,0.04 -0.03,0.04l-0.31 0c0.02,0.06 0.08,0.1 0.14,0.1 0.02,0 0.05,0 0.07,-0.02 0.02,-0.01 0.04,0 0.04,0.03 0,0.01 0,0.02 -0.01,0.02 -0.03,0.02 -0.07,0.03 -0.09,0.03 -0.1,0.01 -0.21,-0.09 -0.21,-0.19 0,-0.11 0.07,-0.19 0.16,-0.2zm-0.1 0.17l0.28 0c0,-0.02 -0.01,-0.05 -0.04,-0.07 -0.02,-0.03 -0.06,-0.05 -0.1,-0.05 -0.05,0 -0.09,0.02 -0.12,0.07 -0.01,0.02 -0.02,0.04 -0.02,0.05z"/>
    <path class="fil1" d="M0.53 2.1l0 0.12 0.07 0c0.02,0 0.03,0.02 0.03,0.03 0,0.02 -0.01,0.03 -0.03,0.03l-0.07 0 0 0.2c0,0.04 0.02,0.07 0.05,0.07l0.03 0c0.02,0 0.03,0.02 0.03,0.03l0 0c0,0.02 -0.01,0.03 -0.03,0.03l-0.03 0c-0.08,0 -0.1,-0.06 -0.1,-0.13l0 -0.2 -0.05 0c-0.01,0 -0.03,-0.01 -0.03,-0.03 0,-0.01 0.02,-0.03 0.03,-0.03l0.05 0c0,-0.04 0,-0.08 0,-0.12 0,-0.01 0.01,-0.03 0.03,-0.03 0.01,0 0.02,0.02 0.02,0.03z"/>
    <path class="fil2" d="M0.74 2.24c0,-0.02 -0.01,-0.03 -0.03,-0.03l0 0c-0.01,0 -0.03,0.01 -0.03,0.03l0 0.05 0 0.29c0,0.02 0.02,0.03 0.03,0.03 0.02,0 0.03,-0.01 0.03,-0.03l0 -0.17c0.01,-0.11 0.09,-0.16 0.18,-0.13l0.01 0c0.02,0.01 0.03,0 0.04,-0.02l0 0c0.01,-0.01 0,-0.03 -0.02,-0.03l-0.01 -0.01c-0.06,-0.02 -0.13,-0.01 -0.2,0.05l0 -0.03z"/>
    <path class="fil2" d="M1.69 2.54l0.21 -0.26 -0.21 0c-0.01,0 -0.02,-0.02 -0.02,-0.03l0 0c0,-0.02 0.01,-0.03 0.02,-0.03l0.25 0c0.04,0 0.04,0.04 0.03,0.07l-0.22 0.26 0.21 0c0.02,0 0.03,0.02 0.03,0.03l0 0c0,0.02 -0.01,0.03 -0.03,0.03l-0.26 0c-0.02,0 -0.04,-0.03 -0.01,-0.07z"/>
    <path class="fil2" d="M1.35 2.54l0.21 -0.26 -0.2 0c-0.02,0 -0.03,-0.02 -0.03,-0.03l0 0c0,-0.02 0.01,-0.03 0.03,-0.03l0.25 0c0.04,0 0.04,0.04 0.02,0.07l-0.21 0.26 0.21 0c0.01,0 0.03,0.02 0.03,0.03l0 0c0,0.02 -0.02,0.03 -0.03,0.03l-0.26 0c-0.03,0 -0.05,-0.03 -0.02,-0.07z"/>
    <path class="fil2" d="M0.2 2.22c0.11,0 0.2,0.09 0.2,0.19 0,0.01 0,0.01 0,0.02l0 0.09 0 0.06 0 0c0,0.01 0,0.01 0,0.01 0,0.01 -0.02,0.02 -0.03,0.02l0 0c-0.02,0 -0.03,-0.01 -0.03,-0.03l0 -0.03c-0.03,0.04 -0.08,0.06 -0.14,0.06 -0.11,0 -0.19,-0.09 -0.19,-0.2 0,-0.1 0.08,-0.19 0.19,-0.19zm0.13 0.2c0,0.07 -0.06,0.13 -0.13,0.13 -0.07,0 -0.13,-0.06 -0.13,-0.13 0,-0.07 0.06,-0.13 0.13,-0.13 0.07,0 0.13,0.06 0.13,0.13z"/>
    <path class="fil2" d="M2.4 2.41c0,-0.1 -0.09,-0.19 -0.2,-0.19 -0.11,0 -0.19,0.09 -0.19,0.19 0,0.11 0.08,0.2 0.19,0.2 0.11,0 0.2,-0.09 0.2,-0.2zm-0.07 0c0,-0.07 -0.06,-0.12 -0.13,-0.12 -0.07,0 -0.13,0.05 -0.13,0.12 0,0.08 0.06,0.13 0.13,0.13 0.07,0 0.13,-0.05 0.13,-0.13z"/>
   </g>
  </g>
 </g>
</svg>
