<?xml version="1.0" encoding="UTF-8"?>
<!DOCTYPE svg PUBLIC "-//W3C//DTD SVG 1.1//EN" "http://www.w3.org/Graphics/SVG/1.1/DTD/svg11.dtd">
<!-- Creator: CorelDRAW 2020 (64-Bit) -->
<svg xmlns="http://www.w3.org/2000/svg" xml:space="preserve" width="68px" height="74px" version="1.1" style="shape-rendering:geometricPrecision; text-rendering:geometricPrecision; image-rendering:optimizeQuality; fill-rule:evenodd; clip-rule:evenodd"
viewBox="0 0 2.18 2.37"
 xmlns:xlink="http://www.w3.org/1999/xlink"
 xmlns:xodm="http://www.corel.com/coreldraw/odm/2003">
 <defs>
  <style type="text/css">
   <![CDATA[
    .fil0 {fill:#F76D27}
    .fil6 {fill:white}
    .fil5 {fill:white;fill-rule:nonzero}
    .fil3 {fill:url(#id0)}
    .fil4 {fill:url(#id1)}
    .fil2 {fill:url(#id2)}
    .fil1 {fill:url(#id3)}
   ]]>
  </style>
  <linearGradient id="id0" gradientUnits="userSpaceOnUse" x1="0.9" y1="1.32" x2="1.42" y2="0.94">
   <stop offset="0" style="stop-opacity:1; stop-color:#5FC2A6"/>
   <stop offset="0.501961" style="stop-opacity:1; stop-color:#4EC1BB"/>
   <stop offset="1" style="stop-opacity:1; stop-color:#2792BB"/>
  </linearGradient>
  <linearGradient id="id1" gradientUnits="userSpaceOnUse" xlink:href="#id0" x1="1.81" y1="0.09" x2="1.6" y2="0.34">
  </linearGradient>
  <linearGradient id="id2" gradientUnits="userSpaceOnUse" xlink:href="#id0" x1="0.38" y1="1.55" x2="0.41" y2="0.25">
  </linearGradient>
  <linearGradient id="id3" gradientUnits="userSpaceOnUse" x1="0.5" y1="0.86" x2="2.41" y2="0.45">
   <stop offset="0" style="stop-opacity:1; stop-color:#F4C232"/>
   <stop offset="0.490196" style="stop-opacity:1; stop-color:#F47B35"/>
   <stop offset="1" style="stop-opacity:1; stop-color:#FF4400"/>
  </linearGradient>
 </defs>
 <g id="Capa_x0020_1">
  <metadata id="CorelCorpID_0Corel-Layer"/>
  <g id="_2104464610208">
   <path class="fil0" d="M1.93 1.2c0.09,0.07 0.17,0.14 0.25,0.21 0,0.01 0,0.01 0,0.01 -0.05,0.13 -0.04,0.24 0,0.37l-0.02 0.01 -0.14 -0.23c0.01,-0.02 0.02,-0.05 0.01,-0.07 -0.02,-0.02 -0.05,-0.03 -0.07,-0.01 -0.03,0.01 -0.04,0.04 -0.02,0.07 0.01,0.02 0.03,0.03 0.05,0.02l0.14 0.24 -0.02 0.01c-0.09,-0.1 -0.19,-0.16 -0.32,-0.18 0,0 -0.01,0 -0.01,-0.01 -0.02,-0.1 -0.04,-0.21 -0.06,-0.32l0.21 -0.12z"/>
   <path class="fil0" d="M1.92 1.17c0.02,-0.01 0.02,-0.06 0.01,-0.08l-0.31 0.17c0.02,0.03 0.06,0.05 0.08,0.04l0.22 -0.13z"/>
   <path class="fil1" d="M1.01 0.02c-0.12,-0.03 -0.26,-0.03 -0.39,0.01 -0.36,0.1 -0.6,0.42 -0.62,0.77 0.07,-0.2 0.24,-0.37 0.46,-0.43 0.01,-0.01 0.01,-0.01 0.02,-0.01 0.19,-0.05 0.38,-0.02 0.54,0.07 0.08,0.04 0.19,0.15 0.23,0.24 0.11,0.17 0.21,0.35 0.31,0.52 0.01,0.02 0.03,0.04 0.05,0.05 0.1,-0.06 0.2,-0.12 0.3,-0.18 0.01,-0.02 0.01,-0.04 -0.01,-0.07 -0.11,-0.18 -0.21,-0.37 -0.32,-0.56 -0.07,-0.11 -0.16,-0.2 -0.28,-0.29 -0.09,-0.06 -0.18,-0.1 -0.29,-0.12z"/>
   <path class="fil2" d="M0.98 1.67c0.02,-0.01 0.05,-0.01 0.08,-0.02 0.22,-0.06 0.4,-0.2 0.51,-0.39 -0.01,0 -0.01,-0.01 -0.01,-0.01l0 0 -0.01 -0.01c0,0 0,0 0,-0.01 -0.08,0.08 -0.17,0.13 -0.28,0.16 0,0 0,0 0,0 0,0 0,0 0,0 -0.3,0.09 -0.61,-0.03 -0.78,-0.27 -0.03,-0.04 -0.06,-0.09 -0.08,-0.15 0,0 0,-0.01 0,-0.01 -0.07,-0.24 0.08,-0.49 0.31,-0.55 0.05,-0.01 0.09,-0.02 0.14,-0.02 -0.12,-0.03 -0.25,-0.03 -0.37,0 -0.01,0 -0.01,0 -0.02,0 -0.21,0.07 -0.37,0.22 -0.44,0.42l-0.03 0.08c0,0.06 0.01,0.11 0.03,0.17 0.11,0.42 0.53,0.68 0.95,0.61z"/>
   <path class="fil3" d="M1.27 0.96c-0.04,0.14 -0.15,0.27 -0.31,0.31 -0.11,0.03 -0.22,0.02 -0.32,-0.03 0.17,0.14 0.41,0.19 0.62,0.12 0,0 0,0 0,0 0.1,-0.03 0.19,-0.08 0.27,-0.15l-0.22 -0.38 -0.04 0.13z"/>
   <path class="fil4" d="M1.47 0.25c0.05,0.05 0.1,0.11 0.14,0.17l0.17 0.3c0.04,-0.21 0.06,-0.27 -0.06,-0.46 -0.11,-0.18 -0.26,-0.18 -0.25,-0.01z"/>
  </g>
  <g id="_2104464610592">
   <g>
    <path class="fil5" d="M0.99 2.01c0.09,-0.01 0.16,0.03 0.2,0.1 0.01,0.03 0.02,0.05 0.02,0.08 0,0.02 -0.01,0.04 -0.03,0.04l-0.28 0c0.02,0.05 0.07,0.09 0.13,0.09 0.02,0 0.04,-0.01 0.06,-0.02 0.02,-0.01 0.04,0 0.04,0.02 0,0.01 -0.01,0.02 -0.02,0.03 -0.02,0.01 -0.06,0.02 -0.08,0.02 -0.09,0.01 -0.19,-0.08 -0.18,-0.17 0,-0.1 0.06,-0.17 0.14,-0.19zm-0.09 0.17l0.25 0c0,-0.02 -0.01,-0.05 -0.03,-0.08 -0.02,-0.02 -0.05,-0.04 -0.09,-0.04 -0.05,0 -0.09,0.02 -0.11,0.06 -0.01,0.02 -0.02,0.04 -0.02,0.06z"/>
    <path class="fil5" d="M0.49 1.91l0 0.11 0.06 0c0.01,0 0.02,0.01 0.02,0.03 0,0.01 -0.01,0.02 -0.02,0.02l-0.06 0 0 0.18c0,0.04 0.01,0.07 0.03,0.07l0.04 0c0.01,0 0.02,0.01 0.02,0.02l0 0c0,0.02 -0.01,0.03 -0.02,0.03l-0.04 0c-0.06,0 -0.09,-0.06 -0.09,-0.12l0 -0.18 -0.04 0c-0.01,0 -0.02,-0.01 -0.02,-0.02 0,-0.02 0.01,-0.03 0.02,-0.03l0.04 0c0,-0.04 0,-0.07 0,-0.11 0,-0.02 0.02,-0.03 0.03,-0.03 0.01,0 0.03,0.01 0.03,0.03z"/>
    <path class="fil6" d="M0.67 2.03c0,-0.01 -0.01,-0.02 -0.02,-0.02l0 0c-0.02,0 -0.03,0.01 -0.03,0.02l0 0.05 0 0.26c0,0.02 0.01,0.03 0.03,0.03 0.01,0 0.02,-0.01 0.02,-0.03l0 -0.15c0.01,-0.1 0.09,-0.15 0.17,-0.12l0.01 0c0.01,0.01 0.03,0 0.03,-0.01l0 0c0.01,-0.02 0,-0.03 -0.01,-0.04l-0.01 0c-0.06,-0.02 -0.12,-0.02 -0.19,0.04l0 -0.03z"/>
    <path class="fil6" d="M1.53 2.31l0.2 -0.24 -0.19 0c-0.01,0 -0.03,-0.01 -0.03,-0.03l0 0c0,-0.01 0.02,-0.02 0.03,-0.02l0.22 0c0.04,0 0.04,0.03 0.03,0.06l-0.2 0.24 0.19 0c0.02,0 0.03,0.01 0.03,0.02l0 0c0,0.02 -0.01,0.03 -0.03,0.03l-0.23 0c-0.03,0 -0.04,-0.03 -0.02,-0.06z"/>
    <path class="fil6" d="M1.23 2.31l0.19 -0.24 -0.19 0c-0.01,0 -0.02,-0.01 -0.02,-0.03l0 0c0,-0.01 0.01,-0.02 0.02,-0.02l0.23 0c0.04,0 0.04,0.03 0.02,0.06l-0.19 0.24 0.19 0c0.01,0 0.02,0.01 0.02,0.02l0 0c0,0.02 -0.01,0.03 -0.02,0.03l-0.24 0c-0.02,0 -0.04,-0.03 -0.01,-0.06z"/>
    <path class="fil6" d="M0.18 2.01c0.1,0 0.18,0.08 0.18,0.18 0,0.01 0,0.01 0,0.02l0 0.08 0 0.06 0 0c0,0 0,0 0,0 0,0.01 -0.01,0.02 -0.02,0.02l0 0c-0.02,0 -0.03,-0.01 -0.03,-0.02l0 -0.03c-0.03,0.03 -0.08,0.05 -0.13,0.05 -0.09,0 -0.17,-0.08 -0.17,-0.18 0,-0.1 0.08,-0.18 0.17,-0.18zm0.12 0.19c0,0.06 -0.05,0.11 -0.12,0.11 -0.06,0 -0.11,-0.05 -0.11,-0.11 0,-0.07 0.05,-0.12 0.11,-0.12 0.07,0 0.12,0.05 0.12,0.12z"/>
    <path class="fil6" d="M2.18 2.19c0,-0.09 -0.08,-0.17 -0.18,-0.17 -0.1,0 -0.18,0.08 -0.18,0.17 0,0.1 0.08,0.18 0.18,0.18 0.1,0 0.18,-0.08 0.18,-0.18zm-0.06 0c0,-0.06 -0.06,-0.11 -0.12,-0.11 -0.06,0 -0.12,0.05 -0.12,0.11 0,0.07 0.06,0.12 0.12,0.12 0.06,0 0.12,-0.05 0.12,-0.12z"/>
   </g>
  </g>
 </g>
</svg>
